# xmcd
#
# Track frame offsets:
#	150
#	4170
#	16308
#	28149
#	32970
#	45880
#	62722
#	76816
#	83485
#	90816
#	107260
#	122943
#	129683
#	143969
#	156848
#	161537
#	172574
#
# Disc length: 2469 seconds
#
# Revision: 0
# Processed by: cddbd v1.5.2PL0 Copyright (c) Steve Scherf et al.
# Submitted via: EasyCDDAExtractor 16.0.9.1
#
DISCID=bd09a311
DTITLE=Fraszynska, Zak - WIOSNA Teatr Malucha Cztery Pory Roku
DYEAR=2011
DGENRE=country
TTITLE0=Wiatr i cztery pory roku-wiosna
TTITLE1=Piosenka wesolego zajaczka
TTITLE2=Przebisniegi
TTITLE3=Sprzatanie sniegu
TTITLE4=Balwan i studnia
TTITLE5=Wiosenny klekot
TTITLE6=Kogut i bocian
TTITLE7=Prosba motyla
TTITLE8=Piosenka Pana Jezyka
TTITLE9=Jaskolka, czyli oglaszaja ptaki wiosne
TTITLE10=Laka wiosna
TTITLE11=Budzenie spiocha
TTITLE12=To wiosna, moj spiochu
TTITLE13=Misiowe wstawanie
TTITLE14=Wiosenne zachwyty
TTITLE15=Paczki
TTITLE16=Czarodziej na zly dzien
EXTD=
EXTT0=
EXTT1=
EXTT2=
EXTT3=
EXTT4=
EXTT5=
EXTT6=
EXTT7=
EXTT8=
EXTT9=
EXTT10=
EXTT11=
EXTT12=
EXTT13=
EXTT14=
EXTT15=
EXTT16=
PLAYORDER=
